<!DOCTYPE svg PUBLIC "-//W3C//DTD SVG 1.1//EN" "http://www.w3.org/Graphics/SVG/1.1/DTD/svg11.dtd"> <svg width="600px" height="321px" version="1.1" baseProfile="full" xmlns="http://www.w3.org/2000/svg" xmlns:xlink="http://www.w3.org/1999/xlink" xmlns:ev="http://www.w3.org/2001/xml-events"><polygon fill="rgb(247,132,25)" stroke="rgb(247,132,25)" points="322.43265940621495,85.03242664039135 287.7708477322012,85.08303597569466 274.18100601807237,50.94859763979912"></polygon><polygon fill="rgb(247,132,25)" stroke="rgb(247,132,25)" points="274.18100601807237,50.94859763979912 336.5356380492449,50.81733778119087 322.43265940621495,85.03242664039135"></polygon><polygon fill="rgb(225,119,25)" stroke="rgb(225,119,25)" points="254.46463502198458,217.73804269731045 267.26704523712397,210.10229274630547 269.5198078677058,208.90971384942532"></polygon><polygon fill="rgb(225,119,25)" stroke="rgb(225,119,25)" points="341.30440716072917,208.972737044096 343.2674042135477,210.17073161900043 355.72272850573063,217.84385062754154"></polygon><polygon fill="rgb(228,119,25)" stroke="rgb(228,119,25)" points="287.7708477322012,85.08303597569466 199.9464928805828,19.151121079921722 274.18100601807237,50.94859763979912"></polygon><polygon fill="rgb(119,57,0)" stroke="rgb(119,57,0)" points="236.10960572212934,112.25471466779709 196.57969933748245,102.41762347519398 194.37542785704136,93.13926585018635"></polygon><polygon fill="rgb(225,119,25)" stroke="rgb(225,119,25)" points="410.4006975144148,18.580927550792694 322.43265940621495,85.03242664039135 336.5356380492449,50.81733778119087"></polygon><polygon fill="rgb(119,57,0)" stroke="rgb(119,57,0)" points="198.0303094536066,113.5614426061511 196.57969933748245,102.41762347519398 236.10960572212934,112.25471466779709"></polygon><polygon fill="rgb(119,57,0)" stroke="rgb(119,57,0)" points="203.68439030647278,129.57034070044756 236.10960572212934,112.25471466779709 253.04949191212654,115.66465325653553"></polygon><polygon fill="rgb(119,57,0)" stroke="rgb(119,57,0)" points="198.0303094536066,113.5614426061511 236.10960572212934,112.25471466779709 203.68439030647278,129.57034070044756"></polygon><polygon fill="rgb(119,57,0)" stroke="rgb(119,57,0)" points="374.6725710481405,112.12334930896759 416.4680365920067,92.84825228154659 414.2433252632618,102.17061668634415"></polygon><polygon fill="rgb(119,57,0)" stroke="rgb(119,57,0)" points="412.770827665925,113.36301647126675 374.6725710481405,112.12334930896759 414.2433252632618,102.17061668634415"></polygon><polygon fill="rgb(119,57,0)" stroke="rgb(119,57,0)" points="407.0800552368164,129.44398660212755 357.4851806014776,115.57240210473537 374.6725710481405,112.12334930896759"></polygon><polygon fill="rgb(119,57,0)" stroke="rgb(119,57,0)" points="412.770827665925,113.36301647126675 407.0800552368164,129.44398660212755 374.6725710481405,112.12334930896759"></polygon><polygon fill="rgb(119,57,0)" stroke="rgb(119,57,0)" points="237.48356868326664,62.55720019340515 236.10960572212934,112.25471466779709 194.37542785704136,93.13926585018635"></polygon><polygon fill="rgb(119,57,0)" stroke="rgb(119,57,0)" points="253.04949191212654,115.66465325653553 236.10960572212934,112.25471466779709 237.48356868326664,62.55720019340515"></polygon><polygon fill="rgb(119,57,0)" stroke="rgb(119,57,0)" points="416.4680365920067,92.84825228154659 374.6725710481405,112.12334930896759 372.9271036013961,62.301590740680695"></polygon><polygon fill="rgb(119,57,0)" stroke="rgb(119,57,0)" points="372.9271036013961,62.301590740680695 374.6725710481405,112.12334930896759 357.4851806014776,115.57240210473537"></polygon><polygon fill="rgb(228,119,25)" stroke="rgb(228,119,25)" points="254.46463502198458,217.73804269731045 199.86401422321796,236.63942277431488 185.89861761033535,182.12887171655893"></polygon><polygon fill="rgb(228,119,25)" stroke="rgb(228,119,25)" points="425.1800462156534,182.2180611640215 411.1955026090145,236.9360190629959 355.72272850573063,217.84385062754154"></polygon><polygon fill="rgb(119,57,0)" stroke="rgb(119,57,0)" points="189.26310768723488,96.58015556633472 194.37542785704136,93.13926585018635 196.57969933748245,102.41762347519398"></polygon><polygon fill="rgb(119,57,0)" stroke="rgb(119,57,0)" points="237.48356868326664,62.55720019340515 287.7708477322012,85.08303597569466 253.04949191212654,115.66465325653553"></polygon><polygon fill="rgb(119,57,0)" stroke="rgb(119,57,0)" points="198.0303094536066,113.5614426061511 190.78727394342422,106.5830535441637 196.57969933748245,102.41762347519398"></polygon><polygon fill="rgb(119,57,0)" stroke="rgb(119,57,0)" points="357.4851806014776,115.57240210473537 322.43265940621495,85.03242664039135 372.9271036013961,62.301590740680695"></polygon><polygon fill="rgb(247,132,25)" stroke="rgb(247,132,25)" points="237.65978384763002,134.29080413654447 185.89861761033535,182.12887171655893 203.68439030647278,129.57034070044756"></polygon><polygon fill="rgb(119,57,0)" stroke="rgb(119,57,0)" points="421.5862838625908,96.29082560539246 414.2433252632618,102.17061668634415 416.4680365920067,92.84825228154659"></polygon><polygon fill="rgb(119,57,0)" stroke="rgb(119,57,0)" points="203.68439030647278,129.57034070044756 193.29193380475044,116.73070222139359 198.0303094536066,113.5614426061511"></polygon><polygon fill="rgb(228,119,25)" stroke="rgb(228,119,25)" points="185.89861761033535,182.12887171655893 229.70360248535872,177.3625409603119 254.46463502198458,217.73804269731045"></polygon><polygon fill="rgb(247,132,25)" stroke="rgb(247,132,25)" points="229.70360248535872,177.3625409603119 185.89861761033535,182.12887171655893 237.65978384763002,134.29080413654447"></polygon><polygon fill="rgb(119,57,0)" stroke="rgb(119,57,0)" points="194.37542785704136,93.13926585018635 187.5745303928852,54.70705181360245 237.48356868326664,62.55720019340515"></polygon><polygon fill="rgb(119,57,0)" stroke="rgb(119,57,0)" points="412.770827665925,113.36301647126675 414.2433252632618,102.17061668634415 420.0411952137947,106.3409261405468"></polygon><polygon fill="rgb(247,132,25)" stroke="rgb(247,132,25)" points="372.37107599526644,134.21918926760554 407.0800552368164,129.44398660212755 425.1800462156534,182.2180611640215"></polygon><polygon fill="rgb(119,57,0)" stroke="rgb(119,57,0)" points="407.0800552368164,129.44398660212755 412.770827665925,113.36301647126675 417.5133550167084,116.53693567961454"></polygon><polygon fill="rgb(228,119,25)" stroke="rgb(228,119,25)" points="355.72272850573063,217.84385062754154 380.33801900595427,177.40507293492556 425.1800462156534,182.2180611640215"></polygon><polygon fill="rgb(247,132,25)" stroke="rgb(247,132,25)" points="372.37107599526644,134.21918926760554 425.1800462156534,182.2180611640215 380.33801900595427,177.40507293492556"></polygon><polygon fill="rgb(119,57,0)" stroke="rgb(119,57,0)" points="372.9271036013961,62.301590740680695 423.1294696480036,54.22712251543999 416.4680365920067,92.84825228154659"></polygon><polygon fill="rgb(247,132,25)" stroke="rgb(247,132,25)" points="203.68439030647278,129.57034070044756 253.04949191212654,115.66465325653553 237.65978384763002,134.29080413654447"></polygon><polygon fill="rgb(247,132,25)" stroke="rgb(247,132,25)" points="407.0800552368164,129.44398660212755 372.37107599526644,134.21918926760554 357.4851806014776,115.57240210473537"></polygon><polygon fill="rgb(228,119,25)" stroke="rgb(228,119,25)" points="253.04949191212654,115.66465325653553 287.7708477322012,85.08303597569466 290.42945402115583,135.08120849728584"></polygon><polygon fill="rgb(228,119,25)" stroke="rgb(228,119,25)" points="290.42945402115583,135.08120849728584 237.65978384763002,134.29080413654447 253.04949191212654,115.66465325653553"></polygon><polygon fill="rgb(228,119,25)" stroke="rgb(228,119,25)" points="357.4851806014776,115.57240210473537 372.37107599526644,134.21918926760554 319.21426416933537,135.06635054945946"></polygon><polygon fill="rgb(228,119,25)" stroke="rgb(228,119,25)" points="319.21426416933537,135.06635054945946 322.43265940621495,85.03242664039135 357.4851806014776,115.57240210473537"></polygon><polygon fill="rgb(119,57,0)" stroke="rgb(119,57,0)" points="199.9464928805828,19.151121079921722 287.7708477322012,85.08303597569466 237.48356868326664,62.55720019340515"></polygon><polygon fill="rgb(119,57,0)" stroke="rgb(119,57,0)" points="237.48356868326664,62.55720019340515 187.5745303928852,54.70705181360245 199.9464928805828,19.151121079921722"></polygon><polygon fill="rgb(119,57,0)" stroke="rgb(119,57,0)" points="410.4006975144148,18.580927550792694 423.1294696480036,54.22712251543999 372.9271036013961,62.301590740680695"></polygon><polygon fill="rgb(119,57,0)" stroke="rgb(119,57,0)" points="372.9271036013961,62.301590740680695 322.43265940621495,85.03242664039135 410.4006975144148,18.580927550792694"></polygon><polygon fill="rgb(247,132,25)" stroke="rgb(247,132,25)" points="287.7708477322012,85.08303597569466 322.43265940621495,85.03242664039135 319.21426416933537,135.06635054945946"></polygon><polygon fill="rgb(247,132,25)" stroke="rgb(247,132,25)" points="319.21426416933537,135.06635054945946 290.42945402115583,135.08120849728584 287.7708477322012,85.08303597569466"></polygon><polygon fill="rgb(205,98,0)" stroke="rgb(205,98,0)" points="254.46463502198458,217.73804269731045 229.70360248535872,177.3625409603119 259.21359933167696,176.41733590513468"></polygon><polygon fill="rgb(205,98,0)" stroke="rgb(205,98,0)" points="355.72272850573063,217.84385062754154 350.4898405447602,176.44146468490362 380.33801900595427,177.40507293492556"></polygon><polygon fill="rgb(205,98,0)" stroke="rgb(205,98,0)" points="258.70531629770994,155.0382204912603 237.65978384763002,134.29080413654447 290.42945402115583,135.08120849728584"></polygon><polygon fill="rgb(228,116,36)" stroke="rgb(228,116,36)" points="237.65978384763002,134.29080413654447 258.70531629770994,155.0382204912603 259.21359933167696,176.41733590513468"></polygon><polygon fill="rgb(247,132,25)" stroke="rgb(247,132,25)" points="237.65978384763002,134.29080413654447 259.21359933167696,176.41733590513468 229.70360248535872,177.3625409603119"></polygon><polygon fill="rgb(205,98,0)" stroke="rgb(205,98,0)" points="319.21426416933537,135.06635054945946 372.37107599526644,134.21918926760554 351.0757494792342,155.02533462829888"></polygon><polygon fill="rgb(228,116,36)" stroke="rgb(228,116,36)" points="372.37107599526644,134.21918926760554 350.4898405447602,176.44146468490362 351.0757494792342,155.02533462829888"></polygon><polygon fill="rgb(247,132,25)" stroke="rgb(247,132,25)" points="380.33801900595427,177.40507293492556 350.4898405447602,176.44146468490362 372.37107599526644,134.21918926760554"></polygon><polygon fill="rgb(192,172,157)" stroke="rgb(192,172,157)" points="264.79591765254736,224.41942006349564 254.46463502198458,217.73804269731045 284.049062050879,223.04578959941864"></polygon><polygon fill="rgb(192,172,157)" stroke="rgb(192,172,157)" points="324.6467911787331,223.09225365519524 355.72272850573063,217.84385062754154 345.03596094995737,224.51337680220604"></polygon><polygon fill="rgb(214,194,178)" stroke="rgb(214,194,178)" points="283.70328263938427,211.98018349707127 284.049062050879,223.04578959941864 254.46463502198458,217.73804269731045"></polygon><polygon fill="rgb(214,194,178)" stroke="rgb(214,194,178)" points="254.46463502198458,217.73804269731045 286.31630101054907,190.09640887379646 283.70328263938427,211.98018349707127"></polygon><polygon fill="rgb(228,119,25)" stroke="rgb(228,119,25)" points="286.31630101054907,190.09640887379646 254.46463502198458,217.73804269731045 259.21359933167696,176.41733590513468"></polygon><polygon fill="rgb(214,194,178)" stroke="rgb(214,194,178)" points="324.70911905914545,212.01855041086674 355.72272850573063,217.84385062754154 324.6467911787331,223.09225365519524"></polygon><polygon fill="rgb(214,194,178)" stroke="rgb(214,194,178)" points="355.72272850573063,217.84385062754154 324.70911905914545,212.01855041086674 322.0541807897389,190.11508241295815"></polygon><polygon fill="rgb(228,119,25)" stroke="rgb(228,119,25)" points="322.0541807897389,190.11508241295815 350.4898405447602,176.44146468490362 355.72272850573063,217.84385062754154"></polygon><polygon fill="rgb(205,98,0)" stroke="rgb(205,98,0)" points="290.42945402115583,135.08120849728584 277.65085235983133,146.23097451636568 258.70531629770994,155.0382204912603"></polygon><polygon fill="rgb(205,98,0)" stroke="rgb(205,98,0)" points="351.0757494792342,155.02533462829888 332.0505845025182,146.2143414723687 319.21426416933537,135.06635054945946"></polygon><polygon fill="rgb(36,51,67)" stroke="rgb(36,51,67)" points="285.37270611152053,161.88708495348692 258.70531629770994,155.0382204912603 277.65085235983133,146.23097451636568"></polygon><polygon fill="rgb(247,132,25)" stroke="rgb(247,132,25)" points="259.21359933167696,176.41733590513468 258.70531629770994,155.0382204912603 285.37270611152053,161.88708495348692"></polygon><polygon fill="rgb(36,51,67)" stroke="rgb(36,51,67)" points="324.1748651266098,161.88669262453914 332.0505845025182,146.2143414723687 351.0757494792342,155.02533462829888"></polygon><polygon fill="rgb(247,132,25)" stroke="rgb(247,132,25)" points="350.4898405447602,176.44146468490362 324.1748651266098,161.88669262453914 351.0757494792342,155.02533462829888"></polygon><polygon fill="rgb(205,98,0)" stroke="rgb(205,98,0)" points="277.65085235983133,146.23097451636568 290.42945402115583,135.08120849728584 285.37270611152053,161.88708495348692"></polygon><polygon fill="rgb(205,98,0)" stroke="rgb(205,98,0)" points="332.0505845025182,146.2143414723687 324.1748651266098,161.88669262453914 319.21426416933537,135.06635054945946"></polygon><polygon fill="rgb(228,116,36)" stroke="rgb(228,116,36)" points="285.37270611152053,161.88708495348692 290.42945402115583,135.08120849728584 291.4723540339619,150.86517847143114"></polygon><polygon fill="rgb(247,132,25)" stroke="rgb(247,132,25)" points="291.4723540339619,150.86517847143114 290.42945402115583,135.08120849728584 319.21426416933537,135.06635054945946"></polygon><polygon fill="rgb(247,132,25)" stroke="rgb(247,132,25)" points="319.21426416933537,135.06635054945946 317.949603183195,150.85940123535693 291.4723540339619,150.86517847143114"></polygon><polygon fill="rgb(225,119,25)" stroke="rgb(225,119,25)" points="324.1748651266098,161.88669262453914 317.949603183195,150.85940123535693 319.21426416933537,135.06635054945946"></polygon><polygon fill="rgb(192,172,157)" stroke="rgb(192,172,157)" points="284.049062050879,223.04578959941864 285.7890917696059,232.05334573984146 264.79591765254736,224.41942006349564"></polygon><polygon fill="rgb(192,172,157)" stroke="rgb(192,172,157)" points="345.03596094995737,224.51337680220604 322.8383721858263,232.10205167531967 324.6467911787331,223.09225365519524"></polygon><polygon fill="rgb(247,132,25)" stroke="rgb(247,132,25)" points="286.31630101054907,190.09640887379646 259.21359933167696,176.41733590513468 285.37270611152053,161.88708495348692"></polygon><polygon fill="rgb(247,132,25)" stroke="rgb(247,132,25)" points="324.1748651266098,161.88669262453914 350.4898405447602,176.44146468490362 322.0541807897389,190.11508241295815"></polygon><polygon fill="rgb(228,116,36)" stroke="rgb(228,116,36)" points="291.4723540339619,150.86517847143114 290.92546631768346,186.88643276691437 285.37270611152053,161.88708495348692"></polygon><polygon fill="rgb(247,132,25)" stroke="rgb(247,132,25)" points="285.37270611152053,161.88708495348692 290.92546631768346,186.88643276691437 286.31630101054907,190.09640887379646"></polygon><polygon fill="rgb(228,116,36)" stroke="rgb(228,116,36)" points="317.949603183195,150.85940123535693 324.1748651266098,161.88669262453914 317.4405917804688,186.89867958426476"></polygon><polygon fill="rgb(247,132,25)" stroke="rgb(247,132,25)" points="322.0541807897389,190.11508241295815 317.4405917804688,186.89867958426476 324.1748651266098,161.88669262453914"></polygon><polygon fill="rgb(247,132,25)" stroke="rgb(247,132,25)" points="291.4723540339619,150.86517847143114 317.949603183195,150.85940123535693 317.4405917804688,186.89867958426476"></polygon><polygon fill="rgb(247,132,25)" stroke="rgb(247,132,25)" points="317.4405917804688,186.89867958426476 290.92546631768346,186.88643276691437 291.4723540339619,150.86517847143114"></polygon><polygon fill="rgb(192,172,157)" stroke="rgb(192,172,157)" points="285.7890917696059,232.05334573984146 284.049062050879,223.04578959941864 283.70328263938427,211.98018349707127"></polygon><polygon fill="rgb(192,172,157)" stroke="rgb(192,172,157)" points="324.70911905914545,212.01855041086674 324.6467911787331,223.09225365519524 322.8383721858263,232.10205167531967"></polygon><polygon fill="rgb(192,172,157)" stroke="rgb(192,172,157)" points="283.70328263938427,211.98018349707127 286.0152753069997,208.87201070785522 285.7890917696059,232.05334573984146"></polygon><polygon fill="rgb(192,172,157)" stroke="rgb(192,172,157)" points="285.7890917696059,232.05334573984146 286.0152753069997,208.87201070785522 322.25983001850545,208.90379704535007"></polygon><polygon fill="rgb(192,172,157)" stroke="rgb(192,172,157)" points="322.25983001850545,208.90379704535007 322.8383721858263,232.10205167531967 285.7890917696059,232.05334573984146"></polygon><polygon fill="rgb(192,172,157)" stroke="rgb(192,172,157)" points="322.8383721858263,232.10205167531967 322.25983001850545,208.90379704535007 324.70911905914545,212.01855041086674"></polygon><polygon fill="rgb(0,0,0)" stroke="rgb(0,0,0)" points="286.0152753069997,208.87201070785522 283.70328263938427,211.98018349707127 286.31630101054907,190.09640887379646"></polygon><polygon fill="rgb(0,0,0)" stroke="rgb(0,0,0)" points="322.0541807897389,190.11508241295815 324.70911905914545,212.01855041086674 322.25983001850545,208.90379704535007"></polygon><polygon fill="rgb(0,0,0)" stroke="rgb(0,0,0)" points="290.5375564638525,189.50219206511974 290.92546631768346,186.88643276691437 317.4405917804688,186.89867958426476"></polygon><polygon fill="rgb(0,0,0)" stroke="rgb(0,0,0)" points="286.31630101054907,190.09640887379646 290.92546631768346,186.88643276691437 290.5375564638525,189.50219206511974"></polygon><polygon fill="rgb(0,0,0)" stroke="rgb(0,0,0)" points="286.31630101054907,190.09640887379646 287.58764705620706,192.83173948526382 286.0152753069997,208.87201070785522"></polygon><polygon fill="rgb(0,0,0)" stroke="rgb(0,0,0)" points="290.5375564638525,189.50219206511974 287.58764705620706,192.83173948526382 286.31630101054907,190.09640887379646"></polygon><polygon fill="rgb(0,0,0)" stroke="rgb(0,0,0)" points="317.4405917804688,186.89867958426476 317.5570545308292,189.5160038024187 290.5375564638525,189.50219206511974"></polygon><polygon fill="rgb(0,0,0)" stroke="rgb(0,0,0)" points="317.5570545308292,189.5160038024187 317.4405917804688,186.89867958426476 322.0541807897389,190.11508241295815"></polygon><polygon fill="rgb(0,0,0)" stroke="rgb(0,0,0)" points="322.25983001850545,208.90379704535007 320.5091661158949,192.85064160823822 322.0541807897389,190.11508241295815"></polygon><polygon fill="rgb(0,0,0)" stroke="rgb(0,0,0)" points="322.0541807897389,190.11508241295815 320.5091661158949,192.85064160823822 317.5570545308292,189.5160038024187"></polygon><polygon fill="rgb(0,0,0)" stroke="rgb(0,0,0)" points="322.25983001850545,208.90379704535007 286.0152753069997,208.87201070785522 287.58764705620706,192.83173948526382"></polygon><polygon fill="rgb(0,0,0)" stroke="rgb(0,0,0)" points="287.58764705620706,192.83173948526382 320.5091661158949,192.85064160823822 322.25983001850545,208.90379704535007"></polygon><polygon fill="rgb(0,0,0)" stroke="rgb(0,0,0)" points="287.58764705620706,192.83173948526382 290.5375564638525,189.50219206511974 317.5570545308292,189.5160038024187"></polygon><polygon fill="rgb(0,0,0)" stroke="rgb(0,0,0)" points="317.5570545308292,189.5160038024187 320.5091661158949,192.85064160823822 287.58764705620706,192.83173948526382"></polygon></svg>